<svg width="576" height="512" xmlns="http://www.w3.org/2000/svg">
 <!-- Font Awesome Pro 5.15.4 by @fontawesome - https://fontawesome.com License - https://fontawesome.com/license (Commercial License) -->

 <g>
  <title>Layer 1</title>
  <path d="m575.81,217.98c-3.17,-60.57 -57.53,-105.98 -118.18,-105.98l-9.37,0c-52.82,0 -104.25,-16.25 -147.74,-46.24c-41.99,-28.96 -96.04,-41.62 -153.21,-28.7c-18.01,4.06 -147.39,41.18 -147.31,186.94c0.04,70.95 38.68,132.8 95.99,166.01l0,73.99c0,8.84 7.16,16 16,16l16,0c8.84,0 16,-7.16 16,-16l0,-54.26c15.36,3.96 31.4,6.26 48,6.26c5.44,0 10.68,-0.73 16,-1.18l0,49.18c0,8.84 7.16,16 16,16l16,0c8.84,0 16,-7.16 16,-16l0,-59.43c14.24,-5.06 27.88,-11.39 40.34,-19.51c45.74,-29.81 97.53,-49.06 152.13,-49.06c25.48,0 16.01,-0.31 23.05,-0.78l74.41,136.44c2.86,5.23 8.3,8.34 14.05,8.34c1.31,0 2.64,-0.16 3.95,-0.5c7.09,-1.8 12.05,-8.19 12.05,-15.5c0,0 0.14,-240.24 -0.16,-246.02zm-111.84,30.02c-13.25,0 -24,-10.75 -24,-24c0,-13.26 10.75,-24 24,-24s24,10.74 24,24c0,13.25 -10.75,24 -24,24zm80,153.25l-39.86,-73.08c15.12,-5.83 28.73,-14.6 39.86,-25.98l0,99.06z" id="svg_1" fill="#482edb"/>
 </g>
</svg>